# xmcd CD database file
#
# Track frame offsets:
#	150
#	18245
#	37182
#	53646
#	72618
#	85274
#	99617
#	114355
#	135241
#	150909
#
# Disc length: 2491 seconds
#
# Revision: 0
# Processed by: cddbd v1.5.1PL0 Copyright (c) Steve Scherf et al.
# Submitted via: CDex 1.51
#
DISCID=7709b90a
DTITLE=SJV-SC - ぶれんでぃ　エクストラライト
DYEAR=2000
DGENRE=Game
TTITLE0=ふぬぬぬぶふごっのテーマ
TTITLE1=河島はるか
TTITLE2=真実の琴音
TTITLE3=IN SEARCH of the memory
TTITLE4=Card if Fly
TTITLE5=吐息の街
TTITLE6=流氷
TTITLE7=プラチナの陽
TTITLE8=ENDING 2
TTITLE9=あなたの横顔
EXTD=YEAR: 2000
EXTT0=
EXTT1=
EXTT2=
EXTT3=
EXTT4=
EXTT5=
EXTT6=
EXTT7=
EXTT8=
EXTT9=
PLAYORDER=
